<svg xmlns="http://www.w3.org/2000/svg" xmlns:xlink="http://www.w3.org/1999/xlink" width="166pt" height="888pt" viewBox="0.00 0.00 166.00 888.00">
<g id="graph0" class="graph" transform="scale(1 1) rotate(0) translate(4 884.25)">
<title>snakemake_dag</title>
<polygon fill="white" stroke="none" points="-4,4 -4,-884.25 162,-884.25 162,4 -4,4"/>
<!-- 0 -->
<g id="node1" class="node">
<title>0</title>
<text xml:space="preserve" text-anchor="start" x="68.88" y="-92.4" font-family="sans" font-weight="bold" font-size="18.00">all</text>
<text xml:space="preserve" text-anchor="start" x="25" y="-70.45" font-family="sans" font-size="10.00"> </text>
<text xml:space="preserve" text-anchor="start" x="28" y="-70.45" font-family="sans" font-weight="bold" font-size="14.00">↪ input</text>
<text xml:space="preserve" text-anchor="start" x="79" y="-70.45" font-family="sans" font-size="10.00"> </text>
<text xml:space="preserve" text-anchor="start" x="25" y="-48.25" font-family="monospace" font-size="10.00">data/benchmark.pdf</text>
<text xml:space="preserve" text-anchor="start" x="25" y="-28.5" font-family="monospace" font-size="10.00">data/benchmark.png</text>
<text xml:space="preserve" text-anchor="start" x="127" y="-8.75" font-family="sans" font-size="10.00">  </text>
<polygon fill="#d95757" stroke="#d95757" points="19,-86.75 19,-86.75 140,-86.75 140,-86.75 19,-86.75"/>
<polygon fill="#d95757" stroke="#d95757" points="19,-22.25 19,-22.25 140,-22.25 140,-22.25 19,-22.25"/>
<polygon fill="none" stroke="#d95757" stroke-width="2" points="19,-1 19,-114.5 139,-114.5 139,-1 19,-1"/>
</g>
<!-- 1 -->
<g id="node2" class="node">
<title>1</title>
<text xml:space="preserve" text-anchor="start" x="9.62" y="-250.65" font-family="sans" font-weight="bold" font-size="18.00">plot_benchmark</text>
<text xml:space="preserve" text-anchor="start" x="7" y="-228.7" font-family="sans" font-size="10.00"> </text>
<text xml:space="preserve" text-anchor="start" x="10" y="-228.7" font-family="sans" font-weight="bold" font-size="14.00">↪ input</text>
<text xml:space="preserve" text-anchor="start" x="61" y="-228.7" font-family="sans" font-size="10.00"> </text>
<text xml:space="preserve" text-anchor="start" x="7" y="-206.5" font-family="monospace" font-size="10.00">data/base_2030_solved.nc</text>
<text xml:space="preserve" text-anchor="start" x="85" y="-183.95" font-family="sans" font-size="10.00"> </text>
<text xml:space="preserve" text-anchor="start" x="88" y="-183.95" font-family="sans" font-weight="bold" font-size="14.00">output →</text>
<text xml:space="preserve" text-anchor="start" x="148" y="-183.95" font-family="sans" font-size="10.00"> </text>
<text xml:space="preserve" text-anchor="start" x="7" y="-161.75" font-family="monospace" font-size="10.00">data/benchmark.{ext}</text>
<polygon fill="#add957" stroke="#add957" points="1,-245 1,-245 158,-245 158,-245 1,-245"/>
<polygon fill="#add957" stroke="#add957" points="1,-200.25 1,-200.25 158,-200.25 158,-200.25 1,-200.25"/>
<polygon fill="none" stroke="#add957" stroke-width="2" points="1,-152.5 1,-272.75 157,-272.75 157,-152.5 1,-152.5"/>
</g>
<!-- 1&#45;&gt;0 -->
<g id="edge1" class="edge">
<title>1-&gt;0</title>
<path fill="none" stroke="grey" stroke-width="2" d="M79,-151.64C79,-143.83 79,-135.78 79,-127.84"/>
<polygon fill="grey" stroke="grey" stroke-width="2" points="82.5,-128.09 79,-118.09 75.5,-128.09 82.5,-128.09"/>
</g>
<!-- 2 -->
<g id="node3" class="node">
<title>2</title>
<text xml:space="preserve" text-anchor="start" x="16.75" y="-408.9" font-family="sans" font-weight="bold" font-size="18.00">solve_network</text>
<text xml:space="preserve" text-anchor="start" x="7" y="-386.95" font-family="sans" font-size="10.00"> </text>
<text xml:space="preserve" text-anchor="start" x="10" y="-386.95" font-family="sans" font-weight="bold" font-size="14.00">↪ input</text>
<text xml:space="preserve" text-anchor="start" x="61" y="-386.95" font-family="sans" font-size="10.00"> </text>
<text xml:space="preserve" text-anchor="start" x="7" y="-364.75" font-family="monospace" font-size="10.00">data/base_2030.nc</text>
<text xml:space="preserve" text-anchor="start" x="85" y="-342.2" font-family="sans" font-size="10.00"> </text>
<text xml:space="preserve" text-anchor="start" x="88" y="-342.2" font-family="sans" font-weight="bold" font-size="14.00">output →</text>
<text xml:space="preserve" text-anchor="start" x="148" y="-342.2" font-family="sans" font-size="10.00"> </text>
<text xml:space="preserve" text-anchor="start" x="7" y="-320" font-family="monospace" font-size="10.00">data/base_2030_solved.nc</text>
<polygon fill="#57add9" stroke="#57add9" points="1,-403.25 1,-403.25 158,-403.25 158,-403.25 1,-403.25"/>
<polygon fill="#57add9" stroke="#57add9" points="1,-358.5 1,-358.5 158,-358.5 158,-358.5 1,-358.5"/>
<polygon fill="none" stroke="#57add9" stroke-width="2" points="1,-310.75 1,-431 157,-431 157,-310.75 1,-310.75"/>
</g>
<!-- 2&#45;&gt;1 -->
<g id="edge2" class="edge">
<title>2-&gt;1</title>
<path fill="none" stroke="grey" stroke-width="2" d="M79,-309.91C79,-302.3 79,-294.45 79,-286.67"/>
<polygon fill="grey" stroke="grey" stroke-width="2" points="82.5,-286.71 79,-276.71 75.5,-286.71 82.5,-286.71"/>
</g>
<!-- 3 -->
<g id="node4" class="node">
<title>3</title>
<text xml:space="preserve" text-anchor="start" x="7" y="-567.15" font-family="sans" font-weight="bold" font-size="18.00">prepare_network</text>
<text xml:space="preserve" text-anchor="start" x="7" y="-545.2" font-family="sans" font-size="10.00"> </text>
<text xml:space="preserve" text-anchor="start" x="10" y="-545.2" font-family="sans" font-weight="bold" font-size="14.00">↪ input</text>
<text xml:space="preserve" text-anchor="start" x="61" y="-545.2" font-family="sans" font-size="10.00"> </text>
<text xml:space="preserve" text-anchor="start" x="7" y="-523" font-family="monospace" font-size="10.00">data/data_filtered.csv</text>
<text xml:space="preserve" text-anchor="start" x="85" y="-500.45" font-family="sans" font-size="10.00"> </text>
<text xml:space="preserve" text-anchor="start" x="88" y="-500.45" font-family="sans" font-weight="bold" font-size="14.00">output →</text>
<text xml:space="preserve" text-anchor="start" x="148" y="-500.45" font-family="sans" font-size="10.00"> </text>
<text xml:space="preserve" text-anchor="start" x="7" y="-478.25" font-family="monospace" font-size="10.00">data/base_2030.nc</text>
<polygon fill="#57d957" stroke="#57d957" points="1,-561.5 1,-561.5 158,-561.5 158,-561.5 1,-561.5"/>
<polygon fill="#57d957" stroke="#57d957" points="1,-516.75 1,-516.75 158,-516.75 158,-516.75 1,-516.75"/>
<polygon fill="none" stroke="#57d957" stroke-width="2" points="1,-469 1,-589.25 157,-589.25 157,-469 1,-469"/>
</g>
<!-- 3&#45;&gt;2 -->
<g id="edge3" class="edge">
<title>3-&gt;2</title>
<path fill="none" stroke="grey" stroke-width="2" d="M79,-468.16C79,-460.55 79,-452.7 79,-444.92"/>
<polygon fill="grey" stroke="grey" stroke-width="2" points="82.5,-444.96 79,-434.96 75.5,-444.96 82.5,-444.96"/>
</g>
<!-- 4 -->
<g id="node5" class="node">
<title>4</title>
<text xml:space="preserve" text-anchor="start" x="33.62" y="-725.4" font-family="sans" font-weight="bold" font-size="18.00">build_data</text>
<text xml:space="preserve" text-anchor="start" x="13" y="-703.45" font-family="sans" font-size="10.00"> </text>
<text xml:space="preserve" text-anchor="start" x="16" y="-703.45" font-family="sans" font-weight="bold" font-size="14.00">↪ input</text>
<text xml:space="preserve" text-anchor="start" x="67" y="-703.45" font-family="sans" font-size="10.00"> </text>
<text xml:space="preserve" text-anchor="start" x="13" y="-681.25" font-family="monospace" font-size="10.00">data/data_raw.csv</text>
<text xml:space="preserve" text-anchor="start" x="79" y="-658.7" font-family="sans" font-size="10.00"> </text>
<text xml:space="preserve" text-anchor="start" x="82" y="-658.7" font-family="sans" font-weight="bold" font-size="14.00">output →</text>
<text xml:space="preserve" text-anchor="start" x="142" y="-658.7" font-family="sans" font-size="10.00"> </text>
<text xml:space="preserve" text-anchor="start" x="13" y="-636.5" font-family="monospace" font-size="10.00">data/data_filtered.csv</text>
<polygon fill="#d9ad57" stroke="#d9ad57" points="7,-719.75 7,-719.75 152,-719.75 152,-719.75 7,-719.75"/>
<polygon fill="#d9ad57" stroke="#d9ad57" points="7,-675 7,-675 152,-675 152,-675 7,-675"/>
<polygon fill="none" stroke="#d9ad57" stroke-width="2" points="7,-627.25 7,-747.5 151,-747.5 151,-627.25 7,-627.25"/>
</g>
<!-- 4&#45;&gt;3 -->
<g id="edge4" class="edge">
<title>4-&gt;3</title>
<path fill="none" stroke="grey" stroke-width="2" d="M79,-626.41C79,-618.8 79,-610.95 79,-603.17"/>
<polygon fill="grey" stroke="grey" stroke-width="2" points="82.5,-603.21 79,-593.21 75.5,-603.21 82.5,-603.21"/>
</g>
<!-- 5 -->
<g id="node6" class="node">
<title>5</title>
<text xml:space="preserve" text-anchor="start" x="23.88" y="-857.15" font-family="sans" font-weight="bold" font-size="18.00">retrieve_data</text>
<text xml:space="preserve" text-anchor="start" x="23.88" y="-838" font-family="sans" font-size="10.00">  </text>
<text xml:space="preserve" text-anchor="start" x="68.12" y="-816.95" font-family="sans" font-size="10.00"> </text>
<text xml:space="preserve" text-anchor="start" x="71.12" y="-816.95" font-family="sans" font-weight="bold" font-size="14.00">output →</text>
<text xml:space="preserve" text-anchor="start" x="131.12" y="-816.95" font-family="sans" font-size="10.00"> </text>
<text xml:space="preserve" text-anchor="start" x="23.88" y="-794.75" font-family="monospace" font-size="10.00">data/data_raw.csv</text>
<polygon fill="#57d9ad" stroke="#57d9ad" points="17.88,-851.5 17.88,-851.5 141.12,-851.5 141.12,-851.5 17.88,-851.5"/>
<polygon fill="#57d9ad" stroke="#57d9ad" points="17.88,-833.25 17.88,-833.25 141.12,-833.25 141.12,-833.25 17.88,-833.25"/>
<polygon fill="none" stroke="#57d9ad" stroke-width="2" points="17.88,-785.5 17.88,-879.25 140.12,-879.25 140.12,-785.5 17.88,-785.5"/>
</g>
<!-- 5&#45;&gt;4 -->
<g id="edge5" class="edge">
<title>5-&gt;4</title>
<path fill="none" stroke="grey" stroke-width="2" d="M79,-784.55C79,-777.05 79,-769.14 79,-761.2"/>
<polygon fill="grey" stroke="grey" stroke-width="2" points="82.5,-761.37 79,-751.37 75.5,-761.37 82.5,-761.37"/>
</g>
</g>
</svg>