<svg xmlns="http://www.w3.org/2000/svg" xmlns:xlink="http://www.w3.org/1999/xlink" width="193pt" height="902pt" viewBox="0.00 0.00 193.00 901.75">
<g id="graph0" class="graph" transform="scale(1 1) rotate(0) translate(4 897.75)">
<title>snakemake_dag</title>
<polygon fill="white" stroke="none" points="-4,4 -4,-897.75 189,-897.75 189,4 -4,4"/>
<!-- 0 -->
<g id="node1" class="node">
<title>0</title>
<text text-anchor="start" x="80.5" y="-96.15" font-family="sans" font-weight="bold" font-size="18.00">all</text>
<text text-anchor="start" x="38.5" y="-71.2" font-family="sans" font-size="10.00"> </text>
<text text-anchor="start" x="41.5" y="-71.2" font-family="sans" font-weight="bold" font-size="14.00">↪ input</text>
<text text-anchor="start" x="98.5" y="-71.2" font-family="sans" font-size="10.00"> </text>
<text text-anchor="start" x="38.5" y="-49.75" font-family="monospace" font-size="10.00">data/benchmark.pdf</text>
<text text-anchor="start" x="38.5" y="-30" font-family="monospace" font-size="10.00">data/benchmark.png</text>
<text text-anchor="start" x="140.5" y="-10.25" font-family="sans" font-size="10.00">  </text>
<polygon fill="#d95757" stroke="#d95757" points="32.5,-87.5 32.5,-87.5 153.5,-87.5 153.5,-87.5 32.5,-87.5"/>
<polygon fill="#d95757" stroke="#d95757" points="32.5,-23.75 32.5,-23.75 153.5,-23.75 153.5,-23.75 32.5,-23.75"/>
<polygon fill="none" stroke="#d95757" stroke-width="2" points="32.5,-1 32.5,-118.25 152.5,-118.25 152.5,-1 32.5,-1"/>
</g>
<!-- 1 -->
<g id="node2" class="node">
<title>1</title>
<text text-anchor="start" x="12.25" y="-255.9" font-family="sans" font-weight="bold" font-size="18.00">plot_benchmark</text>
<text text-anchor="start" x="12.25" y="-230.95" font-family="sans" font-size="10.00"> </text>
<text text-anchor="start" x="15.25" y="-230.95" font-family="sans" font-weight="bold" font-size="14.00">↪ input</text>
<text text-anchor="start" x="72.25" y="-230.95" font-family="sans" font-size="10.00"> </text>
<text text-anchor="start" x="12.25" y="-209.5" font-family="monospace" font-size="10.00">data/base_2030_solved.nc</text>
<text text-anchor="start" x="97.75" y="-186.95" font-family="sans" font-size="10.00"> </text>
<text text-anchor="start" x="100.75" y="-186.95" font-family="sans" font-weight="bold" font-size="14.00">output →</text>
<text text-anchor="start" x="169.75" y="-186.95" font-family="sans" font-size="10.00"> </text>
<text text-anchor="start" x="12.25" y="-165.5" font-family="monospace" font-size="10.00">data/benchmark.{ext}</text>
<polygon fill="#add957" stroke="#add957" points="6.25,-247.25 6.25,-247.25 179.75,-247.25 179.75,-247.25 6.25,-247.25"/>
<polygon fill="#add957" stroke="#add957" points="6.25,-203.25 6.25,-203.25 179.75,-203.25 179.75,-203.25 6.25,-203.25"/>
<polygon fill="none" stroke="#add957" stroke-width="2" points="6.25,-156.25 6.25,-278 178.75,-278 178.75,-156.25 6.25,-156.25"/>
</g>
<!-- 1&#45;&gt;0 -->
<g id="edge1" class="edge">
<title>1-&gt;0</title>
<path fill="none" stroke="grey" stroke-width="2" d="M92.5,-155.56C92.5,-147.91 92.5,-140.03 92.5,-132.23"/>
<polygon fill="grey" stroke="grey" stroke-width="2" points="96,-132.27 92.5,-122.27 89,-132.27 96,-132.27"/>
</g>
<!-- 2 -->
<g id="node3" class="node">
<title>2</title>
<text text-anchor="start" x="20.5" y="-415.65" font-family="sans" font-weight="bold" font-size="18.00">solve_network</text>
<text text-anchor="start" x="20.5" y="-390.7" font-family="sans" font-size="10.00"> </text>
<text text-anchor="start" x="23.5" y="-390.7" font-family="sans" font-weight="bold" font-size="14.00">↪ input</text>
<text text-anchor="start" x="80.5" y="-390.7" font-family="sans" font-size="10.00"> </text>
<text text-anchor="start" x="20.5" y="-369.25" font-family="monospace" font-size="10.00">data/base_2030.nc</text>
<text text-anchor="start" x="89.5" y="-346.7" font-family="sans" font-size="10.00"> </text>
<text text-anchor="start" x="92.5" y="-346.7" font-family="sans" font-weight="bold" font-size="14.00">output →</text>
<text text-anchor="start" x="161.5" y="-346.7" font-family="sans" font-size="10.00"> </text>
<text text-anchor="start" x="20.5" y="-325.25" font-family="monospace" font-size="10.00">data/base_2030_solved.nc</text>
<polygon fill="#57add9" stroke="#57add9" points="14.5,-407 14.5,-407 171.5,-407 171.5,-407 14.5,-407"/>
<polygon fill="#57add9" stroke="#57add9" points="14.5,-363 14.5,-363 171.5,-363 171.5,-363 14.5,-363"/>
<polygon fill="none" stroke="#57add9" stroke-width="2" points="14.5,-316 14.5,-437.75 170.5,-437.75 170.5,-316 14.5,-316"/>
</g>
<!-- 2&#45;&gt;1 -->
<g id="edge2" class="edge">
<title>2-&gt;1</title>
<path fill="none" stroke="grey" stroke-width="2" d="M92.5,-315.34C92.5,-307.56 92.5,-299.53 92.5,-291.58"/>
<polygon fill="grey" stroke="grey" stroke-width="2" points="96,-291.79 92.5,-281.79 89,-291.79 96,-291.79"/>
</g>
<!-- 3 -->
<g id="node4" class="node">
<title>3</title>
<text text-anchor="start" x="7" y="-575.4" font-family="sans" font-weight="bold" font-size="18.00">prepare_network</text>
<text text-anchor="start" x="7" y="-550.45" font-family="sans" font-size="10.00"> </text>
<text text-anchor="start" x="10" y="-550.45" font-family="sans" font-weight="bold" font-size="14.00">↪ input</text>
<text text-anchor="start" x="67" y="-550.45" font-family="sans" font-size="10.00"> </text>
<text text-anchor="start" x="7" y="-529" font-family="monospace" font-size="10.00">data/data_filtered.csv</text>
<text text-anchor="start" x="103" y="-506.45" font-family="sans" font-size="10.00"> </text>
<text text-anchor="start" x="106" y="-506.45" font-family="sans" font-weight="bold" font-size="14.00">output →</text>
<text text-anchor="start" x="175" y="-506.45" font-family="sans" font-size="10.00"> </text>
<text text-anchor="start" x="7" y="-485" font-family="monospace" font-size="10.00">data/base_2030.nc</text>
<polygon fill="#57d957" stroke="#57d957" points="1,-566.75 1,-566.75 185,-566.75 185,-566.75 1,-566.75"/>
<polygon fill="#57d957" stroke="#57d957" points="1,-522.75 1,-522.75 185,-522.75 185,-522.75 1,-522.75"/>
<polygon fill="none" stroke="#57d957" stroke-width="2" points="1,-475.75 1,-597.5 184,-597.5 184,-475.75 1,-475.75"/>
</g>
<!-- 3&#45;&gt;2 -->
<g id="edge3" class="edge">
<title>3-&gt;2</title>
<path fill="none" stroke="grey" stroke-width="2" d="M92.5,-475.09C92.5,-467.31 92.5,-459.28 92.5,-451.33"/>
<polygon fill="grey" stroke="grey" stroke-width="2" points="96,-451.54 92.5,-441.54 89,-451.54 96,-451.54"/>
</g>
<!-- 4 -->
<g id="node5" class="node">
<title>4</title>
<text text-anchor="start" x="40.38" y="-735.15" font-family="sans" font-weight="bold" font-size="18.00">build_data</text>
<text text-anchor="start" x="26.5" y="-710.2" font-family="sans" font-size="10.00"> </text>
<text text-anchor="start" x="29.5" y="-710.2" font-family="sans" font-weight="bold" font-size="14.00">↪ input</text>
<text text-anchor="start" x="86.5" y="-710.2" font-family="sans" font-size="10.00"> </text>
<text text-anchor="start" x="26.5" y="-688.75" font-family="monospace" font-size="10.00">data/data_raw.csv</text>
<text text-anchor="start" x="83.5" y="-666.2" font-family="sans" font-size="10.00"> </text>
<text text-anchor="start" x="86.5" y="-666.2" font-family="sans" font-weight="bold" font-size="14.00">output →</text>
<text text-anchor="start" x="155.5" y="-666.2" font-family="sans" font-size="10.00"> </text>
<text text-anchor="start" x="26.5" y="-644.75" font-family="monospace" font-size="10.00">data/data_filtered.csv</text>
<polygon fill="#d9ad57" stroke="#d9ad57" points="20.5,-726.5 20.5,-726.5 165.5,-726.5 165.5,-726.5 20.5,-726.5"/>
<polygon fill="#d9ad57" stroke="#d9ad57" points="20.5,-682.5 20.5,-682.5 165.5,-682.5 165.5,-682.5 20.5,-682.5"/>
<polygon fill="none" stroke="#d9ad57" stroke-width="2" points="20.5,-635.5 20.5,-757.25 164.5,-757.25 164.5,-635.5 20.5,-635.5"/>
</g>
<!-- 4&#45;&gt;3 -->
<g id="edge4" class="edge">
<title>4-&gt;3</title>
<path fill="none" stroke="grey" stroke-width="2" d="M92.5,-634.84C92.5,-627.06 92.5,-619.03 92.5,-611.08"/>
<polygon fill="grey" stroke="grey" stroke-width="2" points="96,-611.29 92.5,-601.29 89,-611.29 96,-611.29"/>
</g>
<!-- 5 -->
<g id="node6" class="node">
<title>5</title>
<text text-anchor="start" x="25.38" y="-870.65" font-family="sans" font-weight="bold" font-size="18.00">retrieve_data</text>
<text text-anchor="start" x="25.38" y="-848.5" font-family="sans" font-size="10.00">  </text>
<text text-anchor="start" x="84.62" y="-825.95" font-family="sans" font-size="10.00"> </text>
<text text-anchor="start" x="87.62" y="-825.95" font-family="sans" font-weight="bold" font-size="14.00">output →</text>
<text text-anchor="start" x="156.62" y="-825.95" font-family="sans" font-size="10.00"> </text>
<text text-anchor="start" x="25.38" y="-804.5" font-family="monospace" font-size="10.00">data/data_raw.csv</text>
<polygon fill="#57d9ad" stroke="#57d9ad" points="19.38,-862 19.38,-862 166.62,-862 166.62,-862 19.38,-862"/>
<polygon fill="#57d9ad" stroke="#57d9ad" points="19.38,-842.25 19.38,-842.25 166.62,-842.25 166.62,-842.25 19.38,-842.25"/>
<polygon fill="none" stroke="#57d9ad" stroke-width="2" points="19.38,-795.25 19.38,-892.75 165.62,-892.75 165.62,-795.25 19.38,-795.25"/>
</g>
<!-- 5&#45;&gt;4 -->
<g id="edge5" class="edge">
<title>5-&gt;4</title>
<path fill="none" stroke="grey" stroke-width="2" d="M92.5,-794.51C92.5,-786.94 92.5,-778.98 92.5,-771.01"/>
<polygon fill="grey" stroke="grey" stroke-width="2" points="96,-771.12 92.5,-761.12 89,-771.12 96,-771.12"/>
</g>
</g>
</svg>